<?xml version="1.0" encoding="UTF-8"?>
<svg id="Layer_1" xmlns="http://www.w3.org/2000/svg" width="500" height="500" version="1.1" viewBox="73.8 73.8 354.8 354.8">
  <!-- Generator: Adobe Illustrator 30.0.0, SVG Export Plug-In . SVG Version: 2.1.1 Build 123)  -->
  <defs>
    <style>
      .st0 {
        fill: #000000;
      }

      .st1 {
        fill: #fff;
      }
    </style>
  </defs>
  
  <g>
    <path class="st0" d="M116.5,249c.2-.5.4-1,.4-1.6v-4.7c0-2-1.6-3.7-3.7-3.7h-17.4v22h18.4c2,0,3.7-1.6,3.7-3.7v-5.1c0-1-.5-2-1.2-2.7v-.5ZM98.3,242.7c0-.6.6-1.2,1.2-1.2h13.7c.6,0,1.2.6,1.2,1.2v4.7c0,.6-.5,1.2-1.2,1.2h-13.7c-.6,0-1.2-.6-1.2-1.2v-4.7ZM115.4,257.4c0,.6-.6,1.2-1.2,1.2h-14.7c-.6,0-1.2-.6-1.2-1.2v-5.1c0-.6.6-1.2,1.2-1.2h14.7c.6,0,1.2.6,1.2,1.2v5.1Z"/>
    <polygon class="st0" points="129.8 239 127.3 239 127.3 261 149.3 261 149.3 258.5 129.8 258.5 129.8 239"/>
    <path class="st0" d="M176.7,257.4c0,.6-.6,1.2-1.2,1.2h-14.7c-.6,0-1.2-.6-1.2-1.2v-18.4h-2.5v18.4c0,2,1.6,3.7,3.7,3.7h14.7c2,0,3.7-1.6,3.7-3.7v-18.4h-2.5v18.4Z"/>
    <polygon class="st0" points="188.7 261 208.8 261 208.8 258.5 191.2 258.5 191.2 251.3 205.4 251.3 205.4 248.8 191.2 248.8 191.2 241.5 208.8 241.5 208.8 239 188.7 239 188.7 261"/>
    <path class="st0" d="M236.5,239h-18.4v22h2.5v-8.3c.5,0,.9.1,1.2.1h14.7c2,0,3.7-1.7,3.7-3.7v-6.5c0-2-1.6-3.7-3.7-3.7ZM237.7,249.2c0,.6-.6,1.2-1.2,1.2h-14.7c-.6,0-1.2-.5-1.2-1.2v-6.5c0-.6.6-1.2,1.2-1.2h14.7c.6,0,1.2.6,1.2,1.2v6.5Z"/>
    <path class="st0" d="M266.8,239h-18.4v22h2.5v-8.3c.5,0,.9.1,1.2.1h8.1l6.9,8.2h3.3l-6.9-8.2h3.4c2,0,3.7-1.7,3.7-3.7v-6.5c0-2-1.6-3.7-3.7-3.7ZM268,249.2c0,.6-.5,1.2-1.2,1.2h-14.7c-.6,0-1.2-.5-1.2-1.2v-6.5c0-.6.6-1.2,1.2-1.2h14.7c.6,0,1.2.6,1.2,1.2v6.5Z"/>
    <rect class="st0" x="279.9" y="239" width="2.5" height="22"/>
    <polygon class="st0" points="312.2 258.2 296.1 239 292.7 239 292.7 261 295.2 261 295.2 241.8 311.3 261 314.7 261 314.7 239 312.2 239 312.2 258.2"/>
    <polygon class="st0" points="322.2 241.5 332 241.5 332 261 334.5 261 334.5 241.5 344.2 241.5 344.2 239 322.2 239 322.2 241.5"/>
    <polygon class="st0" points="352.7 261 372.8 261 372.8 258.5 355.2 258.5 355.2 251.3 369.3 251.3 369.3 248.8 355.2 248.8 355.2 241.5 372.8 241.5 372.8 239 352.7 239 352.7 261"/>
    <path class="st0" d="M404.2,249.2v-6.5c0-2-1.6-3.7-3.7-3.7h-18.4v22h2.5v-8.3c.5,0,.9.1,1.2.1h8.1l6.9,8.2h3.3l-6.9-8.2h3.4c2,0,3.7-1.7,3.7-3.7ZM385.8,250.3c-.6,0-1.2-.5-1.2-1.2v-6.5c0-.6.6-1.2,1.2-1.2h14.7c.6,0,1.2.6,1.2,1.2v6.5c0,.6-.5,1.2-1.2,1.2h-14.7Z"/>
  </g>
</svg>