<?xml version="1.0" encoding="UTF-8"?>
<svg id="Layer_1" xmlns="http://www.w3.org/2000/svg" width="500" height="500" version="1.1" viewBox="65.3 65.3 335.5 335.5">
  <!-- Generator: Adobe Illustrator 30.0.0, SVG Export Plug-In . SVG Version: 2.1.1 Build 123)  -->
  <defs>
    <style>
      .st0 {
        fill: #000000;
      }

      .st1 {
        fill: #fff;
      }
    </style>
  </defs>
  <rect class="st0" x="65.3" y="65.3" width="335.5" height="335.5"/>
  <path class="st1" d="M348.8,185l-47.6-23.8c-.7-.4-1.6-.6-2.4-.6s-1.6.2-2.4.6l-42.3,21.2v-41.4c0-2-1.1-3.8-2.9-4.8l-47.6-23.8c-.7-.4-1.6-.6-2.4-.6s-1.6.2-2.4.6l-47.6,23.8c-1.8.9-2.9,2.7-2.9,4.8v144.9c0,2,1.1,3.8,2.9,4.7l45.9,22.9v45.5c0,2,1.1,3.8,2.9,4.7l47.6,23.8c.7.4,1.6.6,2.4.6s1.6-.2,2.4-.6l47.6-23.8c1.8-.9,2.9-2.7,2.9-4.7v-45.5l45.9-22.9c1.8-.9,2.9-2.7,2.9-4.7v-96.1c0-2-1.1-3.8-2.9-4.8ZM201.2,120.4l39.6,19.8-39.6,19.8-39.6-19.8,39.6-19.8ZM245.9,146.8v39.6l-40.6,20.3v-39.6l40.6-20.3ZM245.9,377.6l-40.6-20.3v-39.6l40.6,20.3v39.6ZM245.9,328.8l-89.4-44.7v-137.3l40.6,20.3v48.8l48.8,24.4v88.4ZM250,233.2l-39.6-19.8,88.5-44.2,39.6,19.8-88.5,44.2ZM343.5,284.1l-48.8,24.4v48.8l-40.6,20.3v-137.3l89.4-44.7v88.4Z"/>
</svg>