<?xml version="1.0" encoding="UTF-8"?>
<svg id="Layer_1" xmlns="http://www.w3.org/2000/svg" width="500" height="500" version="1.1" viewBox="26.8 26.8 400.0 400.0">
  <!-- Generator: Adobe Illustrator 30.0.0, SVG Export Plug-In . SVG Version: 2.1.1 Build 123)  -->
  <defs>
    <style>
      .st0 {
        fill: #000000;
      }

      .st1 {
        fill: #fff;
      }
    </style>
  </defs>
  <rect class="st0" x="26.8" y="26.8" width="400.0" height="400.0"/>
  <g>
    <path class="st1" d="M287.1,203.2l-17.9-8.9c-.3-.1-.6-.2-.9-.2s-.6,0-.9.2l-15.9,7.9v-15.5c0-.8-.4-1.4-1.1-1.8l-17.9-8.9c-.3-.1-.6-.2-.9-.2s-.6,0-.9.2l-17.9,8.9c-.7.3-1.1,1-1.1,1.8v54.4c0,.8.4,1.4,1.1,1.8l17.2,8.6v17.1c0,.8.4,1.4,1.1,1.8l17.9,8.9c.3.1.6.2.9.2s.6,0,.9-.2l17.9-8.9c.7-.3,1.1-1,1.1-1.8v-17.1l17.2-8.6c.7-.3,1.1-1,1.1-1.8v-36.1c0-.8-.4-1.4-1.1-1.8ZM231.7,179l14.9,7.4-14.9,7.4-14.9-7.4,14.9-7.4ZM248.5,188.9v14.9l-15.2,7.6v-14.9l15.2-7.6ZM248.5,275.5l-15.2-7.6v-14.9l15.2,7.6v14.9ZM248.5,257.2l-33.6-16.8v-51.5l15.2,7.6v18.3l18.3,9.2v33.2ZM250,221.3l-14.9-7.4,33.2-16.6,14.9,7.4-33.2,16.6ZM285.1,240.4l-18.3,9.2v18.3l-15.2,7.6v-51.5l33.6-16.8v33.2Z"/>
    <g>
      <path class="st1" d="M120.8,312.6c.2-.5.4-1,.4-1.6v-4.5c0-2-1.6-3.6-3.6-3.6h-16.8v21.3h17.8c2,0,3.6-1.6,3.6-3.6v-5c0-1-.5-2-1.2-2.6v-.5ZM103.2,306.5c0-.6.5-1.2,1.2-1.2h13.3c.6,0,1.1.5,1.1,1.2v4.5c0,.6-.5,1.2-1.1,1.2h-13.3c-.6,0-1.2-.5-1.2-1.2v-4.5ZM119.7,320.7c0,.6-.5,1.2-1.2,1.2h-14.2c-.6,0-1.2-.5-1.2-1.2v-5c0-.6.5-1.2,1.2-1.2h14.2c.6,0,1.2.5,1.2,1.2v5Z"/>
      <polygon class="st1" points="133.7 302.9 131.3 302.9 131.3 324.2 152.6 324.2 152.6 321.8 133.7 321.8 133.7 302.9"/>
      <path class="st1" d="M179.1,320.7c0,.6-.5,1.2-1.2,1.2h-14.2c-.6,0-1.2-.5-1.2-1.2v-17.8h-2.4v17.8c0,2,1.6,3.6,3.6,3.6h14.2c2,0,3.6-1.6,3.6-3.6v-17.8h-2.4v17.8Z"/>
      <polygon class="st1" points="190.7 324.2 210.1 324.2 210.1 321.8 193.1 321.8 193.1 314.8 206.8 314.8 206.8 312.4 193.1 312.4 193.1 305.3 210.1 305.3 210.1 302.9 190.7 302.9 190.7 324.2"/>
      <path class="st1" d="M237,303h-17.8v21.3h2.4v-8.1c.4,0,.9.1,1.2.1h14.2c2,0,3.6-1.6,3.6-3.6v-6.2c0-2-1.6-3.6-3.6-3.6ZM238.1,312.7c0,.6-.5,1.1-1.2,1.1h-14.2c-.6,0-1.2-.5-1.2-1.1v-6.2c0-.6.5-1.2,1.2-1.2h14.2c.6,0,1.2.5,1.2,1.2v6.2Z"/>
      <path class="st1" d="M266.3,303h-17.8v21.3h2.4v-8.1c.4,0,.9.1,1.2.1h7.8l6.7,7.9h3.2l-6.7-7.9h3.3c2,0,3.6-1.6,3.6-3.6v-6.2c0-2-1.6-3.6-3.6-3.6ZM267.4,312.7c0,.6-.5,1.1-1.1,1.1h-14.2c-.6,0-1.2-.5-1.2-1.1v-6.2c0-.6.5-1.2,1.2-1.2h14.2c.6,0,1.1.5,1.1,1.2v6.2Z"/>
      <rect class="st1" x="278.9" y="302.9" width="2.4" height="21.3"/>
      <polygon class="st1" points="310.2 321.5 294.6 302.9 291.3 302.9 291.3 324.2 293.7 324.2 293.7 305.6 309.3 324.2 312.6 324.2 312.6 302.9 310.2 302.9 310.2 321.5"/>
      <polygon class="st1" points="319.9 305.3 329.4 305.3 329.4 324.2 331.8 324.2 331.8 305.3 341.2 305.3 341.2 302.9 319.9 302.9 319.9 305.3"/>
      <polygon class="st1" points="349.4 324.2 368.9 324.2 368.9 321.8 351.8 321.8 351.8 314.8 365.5 314.8 365.5 312.4 351.8 312.4 351.8 305.3 368.9 305.3 368.9 302.9 349.4 302.9 349.4 324.2"/>
      <path class="st1" d="M399.2,312.7v-6.2c0-2-1.6-3.6-3.6-3.6h-17.8v21.3h2.4v-8.1c.4,0,.9.1,1.2.1h7.8l6.7,7.9h3.2l-6.7-7.9h3.3c2,0,3.6-1.6,3.6-3.6ZM381.5,313.9c-.6,0-1.2-.5-1.2-1.1v-6.2c0-.6.5-1.2,1.2-1.2h14.2c.6,0,1.1.5,1.1,1.2v6.2c0,.6-.5,1.1-1.1,1.1h-14.2Z"/>
    </g>
  </g>
</svg>